<svg height="512pt" viewBox="-10 0 512 512.00049" width="512pt" xmlns="http://www.w3.org/2000/svg"><path d="m309.910156 474.890625c-12.664062 22.167969-36.523437 37.109375-63.863281 37.109375-27.363281 0-51.226563-14.941406-63.863281-37.109375l9.09375-13.082031 51.855468-74.632813 57.207032 75.148438zm0 0" fill="#8c531f"/><path d="m300.339844 462.324219c-13.429688 14.742187-32.789063 23.984375-54.292969 23.984375-21.78125 0-41.339844-9.464844-54.769531-24.5l51.855468-74.632813zm0 0" fill="#ff3b6a"/><path d="m396.140625 376.960938c26.722656 0 136.699219-260.378907-28.09375-320.183594-20.972656-7.609375-38.757813-8.96875-53.804687-5.398438-44.792969 10.632813-91.605469 10.632813-136.398438 0-15.050781-3.570312-32.835938-2.210937-53.804688 5.398438-164.796874 59.804687-54.816406 320.183594-28.09375 320.183594" fill="#ad7136"/><path d="m164.808594 376.964844h-68.871094c-26.71875 0-136.695312-260.386719 28.101562-320.191406 20.96875-7.601563 38.75-8.96875 53.808594-5.394532 6.414063 1.523438 12.871094 2.828125 19.359375 3.902344-1.417969.472656-2.859375.964844-4.308593 1.492188-164.796876 59.804687-54.8125 320.191406-28.089844 320.191406zm0 0" fill="#8c531f"/><path d="m242.386719 339.082031 59.746093-59.75-16.351562-222.664062h-79.480469l-16.351562 222.664062zm0 0" fill="#8c531f"/><path d="m396.140625 376.964844c0 54.21875-38.035156 98.175781-84.960937 98.175781-16.097657 0-31.148438-5.183594-43.964844-14.164063-4.101563-2.871093-8.613282-4.816406-13.28125-5.847656-5.195313-1.144531-10.582032-1.144531-15.773438 0-4.671875 1.03125-9.183594 2.976563-13.285156 5.847656-12.828125 8.980469-27.875 14.164063-43.964844 14.164063-46.921875 0-84.96875-43.957031-84.96875-98.175781 0-54.230469 38.046875-98.175782 84.96875-98.175782 2.796875 0 5.574219.15625 8.308594.460938 37.804688 4.238281 75.839844 4.238281 113.65625 0 2.734375-.304688 5.5-.460938 8.304688-.460938 46.925781 0 84.960937 43.945313 84.960937 98.175782zm0 0" fill="#e6e6e6"/><path d="m253.933594 417.871094v37.257812c-5.195313-1.144531-10.582032-1.144531-15.773438 0v-37.257812c0-4.351563 3.519532-7.886719 7.886719-7.886719 4.351563 0 7.886719 3.535156 7.886719 7.886719zm0 0" fill="#b3b3b3"/><path d="m136 376.964844c0 46.25 27.667969 85.019531 64.925781 95.421875-6.414062 1.808593-13.125 2.753906-20.023437 2.753906-46.921875 0-84.957032-43.957031-84.957032-98.175781 0-54.230469 38.035157-98.179688 84.957032-98.179688 2.808594 0 5.574218.160156 8.308594.464844 4.996093.554688 9.988281 1.050781 14.984374 1.449219-38.898437 8.992187-68.195312 48.667969-68.195312 96.265625zm0 0" fill="#b3b3b3"/><path d="m164.082031 237.707031c0 16.414063-13.308593 29.722657-29.722656 29.722657s-29.722656-13.308594-29.722656-29.722657c0-16.414062 13.308593-29.722656 29.722656-29.722656s29.722656 13.308594 29.722656 29.722656zm0 0" fill="#384649"/><path d="m387.445312 237.707031c0 16.414063-13.304687 29.722657-29.71875 29.722657-16.417968 0-29.722656-13.308594-29.722656-29.722657 0-16.414062 13.304688-29.722656 29.722656-29.722656 16.414063 0 29.71875 13.308594 29.71875 29.722656zm0 0" fill="#384649"/><path d="m152.75 233.035156c0 6.914063-5.605469 12.519532-12.515625 12.519532-6.914063 0-12.515625-5.605469-12.515625-12.519532 0-6.910156 5.601562-12.515625 12.515625-12.515625 6.910156 0 12.515625 5.605469 12.515625 12.515625zm0 0" fill="#fff"/><path d="m376.84375 233.035156c0 6.914063-5.605469 12.519532-12.515625 12.519532-6.914063 0-12.515625-5.605469-12.515625-12.519532 0-6.910156 5.601562-12.515625 12.515625-12.515625 6.910156 0 12.515625 5.605469 12.515625 12.515625zm0 0" fill="#fff"/><path d="m269.816406 413.863281 19.402344-33.601562c10.566406-18.300781-2.644531-41.179688-23.777344-41.179688h-38.796875c-21.136719 0-34.34375 22.878907-23.777343 41.179688l19.402343 33.601562c10.566407 18.300781 36.980469 18.300781 47.546875 0zm0 0" fill="#59676b"/><path d="m246.035156 427.59375c-9.242187 0-18.496094-4.574219-23.777344-13.722656l-19.390624-33.609375c-10.566407-18.300781 2.640624-41.171875 23.777343-41.171875h11.03125c-9.117187 0-14.804687 22.871094-10.253906 41.171875l8.371094 33.609375c2.28125 9.136718 6.246093 13.710937 10.242187 13.722656zm0 0" fill="#384649"/><path d="m190.371094 35.984375-68.027344 134.402344-8.160156 16.113281c-8.464844 16.730469-31.738282 18.328125-42.421875 2.910156l-67.34375-97.230468c-9.203125-13.28125-3.417969-31.664063 11.722656-37.289063l118.652344-44.039063c.03125-.011718.0625-.023437.09375-.035156l24.796875-9.199218c21.097656-7.835938 40.84375 14.289062 30.6875 34.367187zm0 0" fill="#59676b"/><path d="m487.667969 92.179688-67.34375 97.230468c-10.683594 15.417969-33.957031 13.820313-42.421875-2.910156l-32.535156-64.277344c-.03125-.0625-.066407-.113281-.085938-.175781l-43.566406-86.0625c-10.160156-20.078125 9.589844-42.203125 30.683594-34.367187l32.023437 11.882812c.074219.019531.136719.050781.210937.074219l111.308594 41.316406c15.144532 5.625 20.929688 24.007813 11.726563 37.289063zm0 0" fill="#59676b"/><path d="m122.34375 170.386719-8.160156 16.113281c-8.464844 16.730469-31.738282 18.328125-42.421875 2.910156l-67.34375-97.230468c-9.203125-13.28125-3.417969-31.664063 11.722656-37.289063l118.652344-44.039063c-57.257813 21.378907-100.4375 149.820313-12.449219 159.535157zm0 0" fill="#384649"/><path d="m364.421875 13.5c-32.03125-11.546875-42.769531 61.625-19.140625 108.546875l-43.566406-86.0625c-10.160156-20.078125 9.589844-42.203125 30.683594-34.367187zm0 0" fill="#384649"/><g fill="#b3b3b3"><path d="m348.714844 371.632812c-3.515625 0-6.65625-2.402343-7.597656-5.777343-.886719-3.1875.378906-6.6875 3.09375-8.574219 5.851562-4.058594 13.882812 1.449219 12.148437 8.386719-.863281 3.46875-4.078125 5.964843-7.644531 5.964843zm0 0"/><path d="m360.742188 397.671875c-3.238282 0-6.183594-2.035156-7.355469-5.050781-1.308594-3.363282-.074219-7.316406 2.90625-9.347656 5.761719-3.917969 13.710937 1.371093 12.136719 8.246093-.816407 3.550781-4.03125 6.152344-7.6875 6.152344zm0 0"/><path d="m334.167969 398.292969c-3.511719 0-6.652344-2.402344-7.597657-5.78125-.902343-3.21875.414063-6.820313 3.214844-8.660157 5.855469-3.84375 13.785156 1.570313 12.027344 8.476563-.882812 3.460937-4.066406 5.964844-7.644531 5.964844zm0 0"/><path d="m143.367188 371.632812c-3.582032 0-6.765626-2.5-7.640626-5.964843-.765624-3.023438.382813-6.332031 2.886719-8.207031 5.613281-4.195313 13.707031.71875 12.523438 7.636718-.636719 3.738282-3.988281 6.535156-7.769531 6.535156zm0 0"/><path d="m131.347656 397.671875c-3.375 0-6.421875-2.21875-7.488281-5.410156-1.050781-3.152344.0625-6.765625 2.722656-8.761719 5.585938-4.1875 13.769531.707031 12.53125 7.636719-.667969 3.726562-3.960937 6.535156-7.765625 6.535156zm0 0"/><path d="m157.921875 398.292969c-3.433594 0-6.550781-2.304688-7.542969-5.59375-.96875-3.207031.238282-6.765625 2.960938-8.714844 5.449218-3.886719 13.257812.695313 12.40625 7.390625-.5 3.898438-3.882813 6.917969-7.824219 6.917969zm0 0"/></g></svg>