<svg height="512pt" viewBox="0 -37 512.00522 512" width="512pt" xmlns="http://www.w3.org/2000/svg"><path d="m510.597656 146.277344c-8.207031 30.988281-52.082031 35.664062-75.652344 38.402344-27.804687 3.265624-32.660156 16.152343-20.742187 47.84375 11.738281 31.425781 4.5 64.441406-16.15625 96.664062h.089844l-3.003907 66.558594c37.960938.265625 30.898438 42.726562 30.898438 42.726562h-91.808594c-7.867187.855469-15.753906-1.453125-21.917968-6.421875-6.160157-4.96875-10.089844-12.1875-10.917969-20.0625-1.679688-13.859375-3.179688-33.191406-4.414063-48.109375-24.84375.785156-49.703125-1.078125-74.152344-5.5625-17.09375-2.589844-33.929687-6.664062-50.316406-12.179687-6.082031-1.917969-11.851562-4.714844-17.125-8.300781-4.765625 3.5625-10.15625 6.199218-15.890625 7.769531l-2.472656 50.140625c37.871094.265625 30.898437 42.726562 30.898437 42.726562h-93.925781c-7.871093.855469-15.757812-1.453125-21.917969-6.421875-6.164062-4.96875-10.09375-12.1875-10.921874-20.0625-.53125-3.882812-.972657-8.207031-1.414063-12.710937h.089844s.617187-23.128906 1.148437-39.195313c.617188-15.625-5.828125-43.519531-11.828125-84.039062-9.957031-.765625-18.992187-6.113281-24.453125-14.476563-4.6210935-7.886718-5.890625-17.296875-3.53125-26.128906 2.078125-8.886719 7.730469-16.519531 15.625-21.097656 11.386719-6.355469 25.15625-2.914063 37.339844-1.058594h.089844c8.519531-6.933594 18.082031-12.476562 28.335937-16.421875 24.539063-9.265625 99.75-2.207031 143.183594-2.207031 4.492187.035156 8.96875-.5 13.328125-1.585938 33.988281-8.121094 49.789062-46.699218 61.96875-70.886718 6.875-10.65625 11.472656-22.617188 13.507812-35.132813.386719-21.175781 2.871094-42.257813 7.414063-62.941406 2.382813-8.738281 5.386719-24.363281 17.304687-24.0976565 22.683594.8828125 39.371094 47.9335935 45.988282 70.7070315l.089844.617187c22.597656-2.472656 46.082031 6.535157 52.613281 30.542969 1.410156 5.210938 3 9.886719 4.5 14.125l68.855469 10.945312c1.128906 6.421876.890624 13.011719-.707032 19.332032zm0 0" fill="#e4c05c"/><path d="m510.597656 146.277344c-8.207031 30.988281-52.082031 35.664062-75.652344 38.402344-27.804687 3.265624-32.660156 16.152343-20.742187 47.84375 11.738281 31.425781 4.5 64.441406-16.15625 96.664062-.085937.175781-.175781.265625-.265625.441406-10.75 15.621094-27.085938 26.519532-45.636719 30.453125l-1.5 35.664063c37.957031.265625 30.894531 42.726562 30.894531 42.726562h-47.316406c-7.867187.855469-15.753906-1.453125-21.917968-6.421875-6.160157-4.96875-10.089844-12.1875-10.917969-20.0625-1.679688-13.859375-3.179688-33.191406-4.414063-48.109375-.882812-9.886718-1.589844-17.917968-2.382812-21.273437-.488282-2.414063.058594-4.917969 1.496094-6.914063 1.441406-1.992187 3.652343-3.296875 6.09375-3.589844 6.355468-.882812 13.773437-5.121093 16.859374-18.894531 5.917969-26.480469-17.652343-42.460937-53.226562-73.886719-14.621094-11.328124-24.222656-27.933593-26.75-46.253906 33.988281-8.121094 49.789062-46.699218 61.96875-70.886718 6.875-10.65625 11.472656-22.617188 13.507812-35.132813.386719-21.175781 2.871094-42.257813 7.414063-62.941406 2.382813-8.738281 5.386719-24.363281 17.304687-24.0976565 22.683594.8828125 39.371094 47.9335935 45.988282 70.7070315l.089844.617187c-13.214844 1.246094-25.679688 6.691407-35.574219 15.539063-13.140625 13.613281-21.800781 30.925781-24.804688 49.609375-2.042969 8.109375-3.078125 16.441406-3.089843 24.804687.183593 6.25 3.664062 11.933594 9.140624 14.945313 5.480469 3.011719 12.140626 2.898437 17.515626-.289063 17.085937-7.972656 35.316406-13.214844 54.027343-15.539062 53.140625-9.355469 48.199219-20.300782 39.898438-44.402344l68.855469 10.945312c1.128906 6.421876.890624 13.011719-.707032 19.332032zm0 0" fill="#f5efca"/><path d="m187.246094 323.625c-3.644532 8.261719-8.625 15.867188-14.742188 22.511719-6.082031-1.917969-11.851562-4.714844-17.125-8.300781.277344-.335938.605469-.632813.96875-.882813 6.53125-5.664063 11.617188-12.804687 14.832032-20.832031 2.070312-4.4375 7.347656-6.351563 11.785156-4.28125 4.433594 2.074218 6.351562 7.347656 4.28125 11.785156zm0 0" fill="#b19046"/><path d="m28.789062 273.484375c.089844.882813.265626 1.765625.355469 2.558594-9.957031-.765625-18.992187-6.113281-24.453125-14.476563-4.6210935-7.886718-5.890625-17.296875-3.53125-26.128906 2.078125-8.886719 7.730469-16.519531 15.625-21.097656 11.386719-6.355469 25.15625-2.914063 37.339844-1.058594-18.773438 13.960938-28.476562 37.019531-25.335938 60.203125zm0 0" fill="#b19046"/><path d="m417.140625 120.679688c0-4.875-3.984375-8.828126-8.898437-8.828126-4.914063 0-8.898438 3.953126-8.898438 8.828126s3.984375 8.828124 8.898438 8.828124c4.914062 0 8.898437-3.953124 8.898437-8.828124zm0 0" fill="#2c2f38"/><path d="m121.304688 438.472656h-47.316407c-7.871093.855469-15.757812-1.453125-21.917969-6.421875-6.164062-4.96875-10.09375-12.1875-10.921874-20.0625-.53125-3.882812-.972657-8.207031-1.414063-12.710937h.089844l51.023437-14.652344-.441406 11.121094c37.957031.265625 30.898438 42.726562 30.898438 42.726562zm0 0" fill="#f5efca"/><path d="m167.914062 438.472656h-46.609374s7.058593-42.460937-30.898438-42.726562l.441406-11.121094c-.824218-11.90625 5.34375-23.207031 15.800782-28.957031 10.625-4.320313 21.617187-7.6875 32.839843-10.0625l-2.472656 50.140625c37.871094.265625 30.898437 42.726562 30.898437 42.726562zm0 0" fill="#b19046"/><path d="m426.03125 438.472656h-44.492188s7.0625-42.460937-30.894531-42.726562l1.5-35.664063c18.550781-3.933593 34.886719-14.832031 45.636719-30.453125.089844-.175781.179688-.265625.265625-.441406h.089844l-3.003907 66.558594c37.960938.265625 30.898438 42.726562 30.898438 42.726562zm0 0" fill="#b19046"/><path d="m510.597656 146.277344-6.53125 2.738281c-1.550781.691406-3.28125.875-4.941406.53125-2.984375-.480469-5.5-2.492187-6.621094-5.296875-.894531-2.15625-.898437-4.574219-.003906-6.730469.894531-2.152343 2.613281-3.863281 4.769531-4.746093l14.035157-5.828126c1.128906 6.421876.890624 13.011719-.707032 19.332032zm0 0" fill="#2c2f38"/></svg>