<svg height="512pt" viewBox="0 -5 512.00096 512" width="512pt" xmlns="http://www.w3.org/2000/svg"><path d="m511.355469 256.671875c-2.429688-18.40625-8.675781-26.277344-16.167969-33.210937 2.609375-3.835938 4.191406-11.636719 1.554688-27.246094-1.003907-5.945313-3.117188-11.710938-5.9375-17.199219-2.824219-5.484375-6.359376-10.6875-10.265626-15.484375-32.539062-43.554688-88.539062-44.554688-141.539062-39.554688-22 3-49-27-75.027344-42.132812-4.367187-2.519531-8.730468-5.039062-13.027344-7.519531-30.082031-17.367188-56.820312-32.804688-56.820312-32.804688-38.332031-22.132812-85.726562-23.3125-124.324219-1.648437-43.148437 24.21875-69.800781 69.820312-69.800781 119.214844v43.773437l20.808594 146.28125c1 8.230469 5.8125 15.507813 12.992187 19.652344 8.015625 4.628906 17.886719 4.628906 25.902344 0l5.871094-3.390625c9.328125-5.382813 15.496093-14.894532 16.625-25.605469 2.164062-20.523437 7.464843-33.871094 23.679687-40.441406 12.285156-4.976563 32.980469-.613281 50.207032 4.800781 8.511718 13.019531 22.003906 31.738281 39.703124 50.175781 8.402344 8.75 18.300782 15.703125 28.898438 21.023438 3.027344 34.363281 13.789062 124.878906 43.292969 126.546875 42.027343 2.371094 41.488281-77.605469 41.523437-118.089844 1.53125-.503906 3.078125-.996094 4.539063-1.578125 8.835937-3.535156 17.945312-8.484375 26.644531-14.265625 9.558594 1.472656 20.003906 1.742188 31.234375.40625 2.429687 22.675781 9.402344 64.117188 28.042969 65.320312 28.503906 1.835938 33.015625-53.003906 32.359375-86.394531 64.09375-35.847656 83.640625-55.746093 79.03125-90.628906zm0 0" fill="#f8db8f"/><path d="m473.488281 199.539062s-2.324219-5.148437-5.515625-13.605468c-7.972656-19.957032-8.972656-46.957032-29.972656-57.957032-50-26-122-2-142.648438 51.179688-2.085937 5.542969-4.007812 11.300781-5.851562 17.253906-1.84375 5.949219-3.605469 12.097656-5.351562 18.40625-13.949219 50.492188-19.265626 108.289063 5.980468 130.214844 25.246094 21.921875 74.871094 39.761719 140.410156 3.273438 65.539063-36.492188 85.46875-56.421876 80.820313-91.632813-4.652344-35.210937-23.253906-31.886719-37.871094-57.132813zm0 0" fill="#fff5ae"/><path d="m401.03125 117.734375c-43.339844-3.214844-89.765625 20.433594-105.679688 61.421875-2.089843 5.542969-4.007812 11.300781-5.851562 17.253906-1.84375 5.949219-3.605469 12.097656-5.351562 18.40625-8.105469 29.332032-13.28125 61.121094-11.257813 86.917969 17.703125-21.460937 74.058594-27.402344 86.425781-30.867187 64.507813-18.058594 47.664063-135.785157 41.714844-153.132813zm0 0" fill="#bd4b1e"/><path d="m374.238281 228.660156c0 5.867188-3.566406 12.6875-7.96875 15.230469-4.402343 2.539063-7.96875-.15625-7.96875-6.027344 0-5.867187 3.566407-12.6875 7.96875-15.230469 4.402344-2.539062 7.96875.160157 7.96875 6.027344zm0 0" fill="#162f4d"/><path d="m449.273438 198.234375c0 5.871094-3.566407 12.6875-7.96875 15.230469-4.402344 2.539062-7.972657-.15625-7.972657-6.027344 0-5.867188 3.570313-12.6875 7.972657-15.226562 4.402343-2.542969 7.96875.15625 7.96875 6.023437zm0 0" fill="#162f4d"/><path d="m194.128906 41.519531c-35.25-20.351562-78.140625-22.933593-114.824218-6.382812-8.648438-4.324219-19.109376-10.792969-25.6875-19.179688-3.515626-4.492187-6.671876-8.714843-9.394532-12.480469-4.558594-6.304687-14.5-3.5195308-15.164062 4.238282-1.34375 15.792968.207031 37.089844 14.214844 51.59375-26.808594 25.113281-42.722657 60.328125-43.242188 97.882812 116.195312 62.546875 206.546875-39.335937 241.339844-88.394531zm0 0" fill="#bd4b1e"/><path d="m316.050781 148.132812s13.273438 36.789063 5.964844 72c-7.304687 35.210938-25.015625 77.730469-55.359375 64.441407-30.339844-13.285157 17.472656-114.25 49.394531-136.441407zm0 0" fill="#fff5ae"/><path d="m444.980469 238.417969c1.144531 5.378906-3.980469 15.46875-12.25 18.761719-8.269531 3.289062-16.550781-1.464844-17.695313-6.84375-1.140625-5.378907 4.636719-12.40625 12.902344-15.699219 8.269531-3.292969 15.902344-1.597657 17.042969 3.78125zm0 0" fill="#162f4d"/><path d="m420.097656 312.746094s5.113282 20.488281 16.527344 17.457031c12.40625-3.292969 13.785156-13.183594 15.523438-18.972656 1.738281-5.789063 1.871093-13.917969 1.871093-13.917969l-17.378906-5.652344zm0 0" fill="#ea2642"/><path d="m473.667969 285.621094c-1.71875-1.367188-4.230469-1.078125-5.597657.644531-3.175781 4.003906-6.71875 6.074219-10.824218 6.320313-7.414063.445312-14.667969-5.058594-17.410156-7.414063-.304688-9.875-3.667969-33.820313-3.824219-34.90625-.304688-2.179687-2.328125-3.695313-4.5-3.390625-2.183594.308594-3.699219 2.324219-3.390625 4.503906.035156.28125 3.914062 27.875 3.765625 35.5-.074219 3.570313-3.148438 15.765625-11.914063 21.363282-5.871094 3.746093-13.269531 3.703124-22.003906-.136719-2.011719-.882813-4.367188.027343-5.25 2.042969-.886719 2.015624.027344 4.367187 2.042969 5.253906 3.960937 1.742187 7.578125 2.757812 10.855469 3.234375 8.390624 1.21875 14.5625-1.070313 18.644531-3.675781 7.96875-5.085938 12.351562-13.917969 14.3125-20.726563 3.628906 2.496094 8.742187 5.265625 14.460937 6.097656 1.511719.222657 3.066406.304688 4.648438.214844 6.425781-.378906 12.023437-3.515625 16.632812-9.328125 1.367188-1.722656 1.078125-4.230469-.648437-5.597656zm0 0" fill="#162f4d"/></svg>