<svg id="Layer_1" data-name="Layer 1" xmlns="http://www.w3.org/2000/svg" viewBox="0 0 111.54 102.45"><defs><style>.cls-1{fill:#231f20;}</style></defs><title>DOGPRINT</title><path class="cls-1" d="M104.55,53.53a18,18,0,0,0-12.06-4c-6.54-1.7-13.74-.13-17.81,5.56a31.86,31.86,0,0,0-15.6-2.84,21.57,21.57,0,0,0-18.75,15,12.51,12.51,0,0,0-1.42,2.22c-2.11,4.3-1.24,9.45,0,13.87,2.4,8.69,7.49,16.29,13.29,23.06,5.28,6.15,11.81,14.16,20.31,15.4a11.06,11.06,0,0,0,5.35-.12,5.42,5.42,0,0,0,5.81-3.21c4.11-3.4,7.48-8.5,10.52-12.07,5.7-6.7,14-13.92,15.93-22.86a14.65,14.65,0,0,0,.29-1.84,29.56,29.56,0,0,0,1.31-4.16C113.71,69,111.57,59.21,104.55,53.53Z" transform="translate(-15.1 -19.64)"/><path class="cls-1" d="M29,38C22,36.16,15.11,42,15.1,49c0,7.45,7.22,12,14.07,10.78a4.82,4.82,0,0,0,3.52-3.3,8.42,8.42,0,0,0,2.4-1.63C40.93,49.08,35.79,39.82,29,38Z" transform="translate(-15.1 -19.64)"/><path class="cls-1" d="M63.12,22.24c-6-4.76-16-2.9-18.32,4.92-2.45,8.27,4.52,14.77,11.88,16.62A5.11,5.11,0,0,0,63,39.91C69,36,68.91,26.85,63.12,22.24Z" transform="translate(-15.1 -19.64)"/><path class="cls-1" d="M88.84,24.85a9.54,9.54,0,0,0-12.33,3.08,10,10,0,0,0-1.62,6.39c.15,2,1,3.82,1.14,5.77.26,2.84,2.24,5.28,5.28,5.28a5.62,5.62,0,0,0,5-3.49,9.3,9.3,0,0,0,6.43-5A9.4,9.4,0,0,0,88.84,24.85Z" transform="translate(-15.1 -19.64)"/><path class="cls-1" d="M120.78,28.8c-6.77-3.72-15.8,1-16.16,8.64a9.09,9.09,0,0,0-.5,3.5c.43,9,11.19,12.6,17.87,7.43S128.2,32.88,120.78,28.8Z" transform="translate(-15.1 -19.64)"/></svg>